<svg width="121" height="28" viewBox="0 0 121 28" fill="none" xmlns="http://www.w3.org/2000/svg">
<path fill-rule="evenodd" clip-rule="evenodd" d="M4.56552 18.5768V27.9432H0V18.5768C0 18.5427 0 18.5087 0 18.4746C0.055331 13.348 4.22786 9.20894 9.36655 9.20894C13.9108 9.20894 17.801 12.4725 18.5898 16.9507L13.9775 17.7623C13.5831 15.5247 11.6394 13.8929 9.36655 13.8929C6.78018 13.8929 4.68328 15.9901 4.68328 18.5768H4.56552ZM82.405 18.5768C82.405 13.4019 86.5988 9.20894 91.7701 9.20894C96.3157 9.20894 100.205 12.4725 100.995 16.9507L96.3824 17.7623C95.988 15.5247 94.0429 13.8929 91.7701 13.8929C89.1851 13.8929 87.0882 15.9901 87.0882 18.5768C87.0882 21.1635 89.1851 23.2607 91.7701 23.2607C94.0429 23.2607 95.988 21.6275 96.3824 19.3899L100.995 20.2029C100.205 24.6797 96.3157 27.9432 91.7701 27.9432C86.5988 27.9432 82.405 23.7503 82.405 18.5768ZM43.1 10.52C44.4776 9.7226 46.078 9.2657 47.7833 9.2657C52.9518 9.2657 57.1485 13.4629 57.1485 18.6321C57.1485 23.8028 52.9518 28 47.7833 28C42.6134 28 38.4168 23.8028 38.4168 18.6321C38.4168 18.5995 38.4168 18.5655 38.4168 18.5314V0H43.1V10.52ZM43.1 18.5314C43.0986 18.5655 43.1 18.5995 43.1 18.6321C43.1 21.2175 45.1984 23.3161 47.7833 23.3161C50.3669 23.3161 52.4652 21.2175 52.4652 18.6321C52.4652 16.0482 50.3669 13.9496 47.7833 13.9496C45.2324 13.9496 43.154 15.9929 43.1 18.5314ZM81.8077 18.5952C81.8077 23.7659 77.611 27.9631 72.4425 27.9631C67.2726 27.9631 63.076 23.7659 63.076 18.5967C63.076 13.426 67.2726 9.22881 72.4425 9.22881C74.1479 9.22881 75.7468 9.6857 77.1244 10.4832V0.0652714H81.8077V18.5952ZM77.1244 18.5952C77.1244 16.0114 75.0261 13.9127 72.4425 13.9127C69.8576 13.9127 67.7592 16.0114 67.7592 18.5967C67.7592 21.1806 69.8576 23.2792 72.4425 23.2792C75.0261 23.2792 77.1244 21.1806 77.1244 18.5952ZM62.4688 9.41185V27.9432H57.7855V9.41185H62.4688ZM60.1264 3.59276C61.4189 3.59276 62.4688 4.64136 62.4688 5.93402C62.4688 7.22668 61.4189 8.27528 60.1264 8.27528C58.8339 8.27528 57.7855 7.22668 57.7855 5.93402C57.7855 4.64136 58.8339 3.59276 60.1264 3.59276ZM110.969 9.20894C116.138 9.20894 120.335 13.4062 120.335 18.5768C120.335 23.746 116.138 27.9432 110.969 27.9432C105.799 27.9432 101.602 23.746 101.602 18.5768C101.602 13.4062 105.799 9.20894 110.969 9.20894ZM110.969 13.8929C108.384 13.8929 106.285 15.9915 106.285 18.5768C106.285 21.1607 108.384 23.2593 110.969 23.2593C113.554 23.2593 115.652 21.1607 115.652 18.5768C115.652 15.9915 113.554 13.8929 110.969 13.8929ZM28.5125 9.20894C33.6824 9.20894 37.8791 13.4062 37.8791 18.5768C37.8791 23.746 33.6824 27.9432 28.5125 27.9432C23.344 27.9432 19.1474 23.746 19.1474 18.5768C19.1474 13.4062 23.344 9.20894 28.5125 9.20894ZM28.5125 13.8929C25.929 13.8929 23.8292 15.9915 23.8292 18.5768C23.8292 21.1607 25.929 23.2593 28.5125 23.2593C31.0975 23.2593 33.1958 21.1607 33.1958 18.5768C33.1958 15.9915 31.0975 13.8929 28.5125 13.8929Z" fill="#BEBEBE"/>
</svg>
