<svg width="101" height="28" viewBox="0 0 101 28" fill="none" xmlns="http://www.w3.org/2000/svg">
<path fill-rule="evenodd" clip-rule="evenodd" d="M2.81104 2.63189L5.44281 0H8.2392L14.7136 6.4744V9.27079L12.0817 11.9026L2.81104 2.63189Z" fill="#BEBEBE"/>
<path fill-rule="evenodd" clip-rule="evenodd" d="M11.9026 25.3681L9.27079 28H6.4744L0 21.5256V18.7292L2.63189 16.0974L11.9026 25.3681Z" fill="#BEBEBE"/>
<path fill-rule="evenodd" clip-rule="evenodd" d="M14.6943 22.569V17.3044L1.41579 4.02588L0.0209961 5.42724V10.6922L13.2994 23.9706L14.6943 22.569Z" fill="#BEBEBE"/>
<path fill-rule="evenodd" clip-rule="evenodd" d="M29.6092 11.0234C29.4621 10.203 28.7888 8.91992 26.8955 8.91992C25.486 8.91992 24.5605 9.82418 24.5605 10.813C24.5605 11.6335 25.0864 12.2855 26.1801 12.4959L28.2628 12.8955C30.9764 13.4214 32.4281 15.1884 32.4281 17.2922C32.4281 19.5854 30.5137 21.8993 27.0428 21.8993C23.088 21.8993 21.3418 19.3539 21.1104 17.2291L23.8029 16.5138C23.9292 17.9865 24.9601 19.3116 27.0638 19.3116C28.6204 19.3116 29.4831 18.5335 29.4831 17.4816C29.4831 16.6189 28.8308 15.9461 27.6739 15.7144L25.5911 15.2938C23.2141 14.8101 21.6783 13.2741 21.6783 11.0234C21.6783 8.37271 24.0553 6.35327 26.8744 6.35327C30.4927 6.35327 31.8811 8.54086 32.2177 10.224L29.6092 11.0234Z" fill="#BEBEBE"/>
<path fill-rule="evenodd" clip-rule="evenodd" d="M38.2341 11.2334H40.3169V13.716H38.2341V18.0494C38.2341 18.9539 38.6547 19.2484 39.4541 19.2484C39.7907 19.2484 40.1692 19.2064 40.3169 19.1641V21.4783C40.0644 21.5834 39.5592 21.7308 38.739 21.7308C36.7193 21.7308 35.4573 20.5315 35.4573 18.5333V13.716H33.585V11.2334H34.1109C35.2048 11.2334 35.7097 10.5186 35.7097 9.59257V8.14136H38.2341V11.2334Z" fill="#BEBEBE"/>
<path fill-rule="evenodd" clip-rule="evenodd" d="M48.5411 17.3972V16.9343L46.2062 17.2918C45.4908 17.3972 44.9231 17.797 44.9231 18.5964C44.9231 19.2062 45.3647 19.7952 46.2692 19.7952C47.4472 19.7952 48.5411 19.2272 48.5411 17.3972ZM45.2173 15.6302L47.763 15.2514C48.352 15.1673 48.5411 14.8728 48.5411 14.515C48.5411 13.7789 47.9732 13.1689 46.7952 13.1689C45.5751 13.1689 44.9018 13.9473 44.8178 14.8518L42.3357 14.3261C42.5038 12.706 43.9973 10.9177 46.7742 10.9177C50.0559 10.9177 51.2762 12.769 51.2762 14.8518V19.9428C51.2762 20.4895 51.339 21.2259 51.4023 21.5832H48.8359C48.7726 21.3099 48.7305 20.742 48.7305 20.3424C48.2046 21.1628 47.2158 21.8777 45.6802 21.8777C43.4714 21.8777 42.125 20.3844 42.125 18.7646C42.125 16.9133 43.4924 15.8824 45.2173 15.6302Z" fill="#BEBEBE"/>
<path fill-rule="evenodd" clip-rule="evenodd" d="M58.6602 19.3329C60.0904 19.3329 61.2053 18.239 61.2053 16.3667C61.2053 14.5154 60.0904 13.4848 58.6602 13.4848C57.2295 13.4848 56.0938 14.5364 56.0938 16.3877C56.0938 18.239 57.1877 19.3329 58.6602 19.3329ZM63.9193 19.7115C63.9193 20.4056 63.9614 21.1629 64.0031 21.5835H61.3317C61.2896 21.3731 61.2266 20.8684 61.2266 20.3845C60.7637 21.205 59.7118 21.836 58.3234 21.836C55.3784 21.836 53.2749 19.5221 53.2749 16.3877C53.2749 13.3584 55.3151 10.9812 58.2393 10.9812C60.0273 10.9812 60.869 11.7173 61.1633 12.2645V6.35327H63.9193V19.7115Z" fill="#BEBEBE"/>
<path fill-rule="evenodd" clip-rule="evenodd" d="M66.9496 21.5836H69.7474V11.2336H66.9496V21.5836ZM68.3377 6.10083C69.3056 6.10083 70.0627 6.87923 70.0627 7.84705C70.0627 8.77232 69.3056 9.55097 68.3377 9.55097C67.3912 9.55097 66.6128 8.77232 66.6128 7.84705C66.6128 6.87923 67.3912 6.10083 68.3377 6.10083Z" fill="#BEBEBE"/>
<path fill-rule="evenodd" clip-rule="evenodd" d="M79.4239 20.4689C78.8559 21.4364 77.6569 21.857 76.5627 21.857C74.0596 21.857 72.6289 20.0268 72.6289 17.7761V11.2336H75.4268V17.2082C75.4268 18.3651 76.016 19.2906 77.3201 19.2906C78.5614 19.2906 79.2765 18.4492 79.2765 17.2504V11.2336H82.0743V19.7115C82.0743 20.5107 82.1376 21.226 82.1797 21.5836H79.5079C79.4659 21.3731 79.4239 20.8895 79.4239 20.4689Z" fill="#BEBEBE"/>
<path fill-rule="evenodd" clip-rule="evenodd" d="M85.0615 21.5839V11.234H87.7333V12.4963C88.3012 11.4864 89.6266 10.9395 90.7626 10.9395C92.172 10.9395 93.3079 11.5495 93.8339 12.6646C94.6543 11.4023 95.7482 10.9395 97.1156 10.9395C99.03 10.9395 100.86 12.0964 100.86 14.8735V21.5839H98.1463V15.4412C98.1463 14.3265 97.5993 13.4851 96.316 13.4851C95.1172 13.4851 94.4019 14.4104 94.4019 15.5255V21.5839H91.625V15.4412C91.625 14.3265 91.0568 13.4851 89.7947 13.4851C88.5747 13.4851 87.8594 14.3893 87.8594 15.5255V21.5839H85.0615Z" fill="#BEBEBE"/>
</svg>
