<svg width="16" height="16" viewBox="0 0 16 16" fill="none" xmlns="http://www.w3.org/2000/svg">
<g id="certificate-01" clip-path="url(#clip0_108_614)">
<path id="Icon" d="M4.33333 13.3334H3.33333C2.59695 13.3334 2 12.7365 2 12.0001V2.66677C2 1.93039 2.59695 1.33344 3.33333 1.33344H12.6667C13.403 1.33344 14 1.93039 14 2.66677V12.0001C14 12.7365 13.403 13.3334 12.6667 13.3334H11.6667M8 12.6668C9.10457 12.6668 10 11.7713 10 10.6668C10 9.5622 9.10457 8.66677 8 8.66677C6.89543 8.66677 6 9.5622 6 10.6668C6 11.7713 6.89543 12.6668 8 12.6668ZM8 12.6668L8.01429 12.6666L5.88578 14.7951L4.00016 12.9095L6.0131 10.8966M8 12.6668L10.1285 14.7951L12.0142 12.9095L10.0012 10.8966M6 4.0001H10M4.66667 6.33344H11.3333" stroke="#F96B13" stroke-width="1.33333" stroke-linecap="round" stroke-linejoin="round"/>
</g>
<defs>
<clipPath id="clip0_108_614">
<rect width="16" height="16" fill="white"/>
</clipPath>
</defs>
</svg>
