<svg width="16" height="16" viewBox="0 0 16 16" fill="none" xmlns="http://www.w3.org/2000/svg">
<g id="flag-06">
<path id="Icon" d="M2.6665 14.0001L2.6665 2.66673M2.6665 8.66673H7.59984C7.97321 8.66673 8.15989 8.66673 8.3025 8.59407C8.42794 8.53015 8.52993 8.42816 8.59384 8.30272C8.6665 8.16011 8.6665 7.97343 8.6665 7.60006V3.06673C8.6665 2.69336 8.6665 2.50668 8.59384 2.36407C8.52993 2.23863 8.42794 2.13664 8.3025 2.07272C8.15989 2.00006 7.97321 2.00006 7.59984 2.00006H3.73317C3.3598 2.00006 3.17312 2.00006 3.03051 2.07272C2.90507 2.13664 2.80308 2.23863 2.73917 2.36407C2.6665 2.50668 2.6665 2.69336 2.6665 3.06673V8.66673ZM8.6665 3.33339H12.9332C13.3065 3.33339 13.4932 3.33339 13.6358 3.40606C13.7613 3.46997 13.8633 3.57196 13.9272 3.6974C13.9998 3.84001 13.9998 4.02669 13.9998 4.40006V8.93339C13.9998 9.30676 13.9998 9.49345 13.9272 9.63606C13.8633 9.7615 13.7613 9.86348 13.6358 9.9274C13.4932 10.0001 13.3065 10.0001 12.9332 10.0001H9.73317C9.3598 10.0001 9.17312 10.0001 9.03051 9.9274C8.90507 9.86348 8.80308 9.7615 8.73917 9.63606C8.6665 9.49345 8.6665 9.30676 8.6665 8.93339V3.33339Z" stroke="#F96B13" stroke-width="1.33333" stroke-linecap="round" stroke-linejoin="round"/>
</g>
</svg>
