<svg width="24" height="24" viewBox="0 0 24 24" fill="none" xmlns="http://www.w3.org/2000/svg">
<g id="horizontal-bar-chart-02">
<path id="Icon" d="M17.0006 9.5V12.9C17.0006 13.4601 17.0006 13.7401 16.8916 13.954C16.7957 14.1422 16.6428 14.2951 16.4546 14.391C16.2407 14.5 15.9607 14.5 15.4006 14.5L3.00061 14.5M13.0006 14.5V17.9C13.0006 18.4601 13.0006 18.7401 12.8916 18.954C12.7957 19.1422 12.6428 19.2951 12.4546 19.391C12.2407 19.5 11.9607 19.5 11.4006 19.5H3.00061M3.00061 2L3.00061 22M3.00061 9.5L19.4006 9.5C19.9607 9.5 20.2407 9.5 20.4546 9.39101C20.6428 9.29513 20.7957 9.14215 20.8916 8.95399C21.0006 8.74008 21.0006 8.46005 21.0006 7.9V6.1C21.0006 5.53995 21.0006 5.25992 20.8916 5.04601C20.7957 4.85785 20.6428 4.70487 20.4546 4.60899C20.2407 4.5 19.9607 4.5 19.4006 4.5L3.00061 4.5L3.00061 9.5Z" stroke="black" stroke-width="2" stroke-linecap="round" stroke-linejoin="round"/>
</g>
</svg>
