<svg width="19" height="18" viewBox="0 0 19 18" fill="none" xmlns="http://www.w3.org/2000/svg">
<path d="M14.4994 12.1974C15.7126 12.8069 16.7528 13.785 17.5121 15.008C17.6624 15.2502 17.7376 15.3713 17.7636 15.539C17.8164 15.8798 17.5834 16.2988 17.266 16.4336C17.1098 16.5 16.9341 16.5 16.5827 16.5M12.8327 8.6102C14.0675 7.99657 14.916 6.72238 14.916 5.25C14.916 3.77762 14.0675 2.50343 12.8327 1.8898M11.166 5.25C11.166 7.32107 9.48711 9 7.41604 9C5.34497 9 3.66604 7.32107 3.66604 5.25C3.66604 3.17893 5.34497 1.5 7.41604 1.5C9.48711 1.5 11.166 3.17893 11.166 5.25ZM1.63207 14.782C2.96066 12.7871 5.05719 11.5 7.41604 11.5C9.7749 11.5 11.8714 12.7871 13.2 14.782C13.4911 15.219 13.6366 15.4375 13.6198 15.7166C13.6068 15.9339 13.4643 16.2 13.2907 16.3313C13.0676 16.5 12.7609 16.5 12.1474 16.5H2.68467C2.07118 16.5 1.76444 16.5 1.54141 16.3313C1.36775 16.2 1.22528 15.9339 1.21224 15.7166C1.19548 15.4375 1.34101 15.219 1.63207 14.782Z" stroke="#F96B13" stroke-width="1.66667" stroke-linecap="round" stroke-linejoin="round"/>
</svg>
