<svg width="20" height="16" viewBox="0 0 20 16" fill="none" xmlns="http://www.w3.org/2000/svg">
<path d="M17.917 13.0622L12.3813 8.06217M7.61937 8.06217L2.08369 13.0622M1.66699 3.89551L8.47109 8.65838C9.02207 9.04406 9.29756 9.2369 9.59721 9.3116C9.8619 9.37758 10.1387 9.37758 10.4034 9.3116C10.7031 9.2369 10.9786 9.04406 11.5296 8.65838L18.3337 3.89551M5.66699 14.7288H14.3337C15.7338 14.7288 16.4339 14.7288 16.9686 14.4564C17.439 14.2167 17.8215 13.8342 18.0612 13.3638C18.3337 12.829 18.3337 12.129 18.3337 10.7288V5.39551C18.3337 3.99538 18.3337 3.29531 18.0612 2.76053C17.8215 2.29013 17.439 1.90767 16.9686 1.66799C16.4339 1.39551 15.7338 1.39551 14.3337 1.39551H5.66699C4.26686 1.39551 3.5668 1.39551 3.03202 1.66799C2.56161 1.90767 2.17916 2.29013 1.93948 2.76053C1.66699 3.29531 1.66699 3.99538 1.66699 5.39551V10.7288C1.66699 12.129 1.66699 12.829 1.93948 13.3638C2.17916 13.8342 2.56161 14.2167 3.03202 14.4564C3.5668 14.7288 4.26686 14.7288 5.66699 14.7288Z" stroke="#F96B13" stroke-width="1.66667" stroke-linecap="round" stroke-linejoin="round"/>
</svg>
