<svg width="20" height="20" viewBox="0 0 20 20" fill="none" xmlns="http://www.w3.org/2000/svg">
<g clip-path="url(#clip0_200_6059)">
<path d="M15.0003 1.6665L18.3337 4.99984M1.66699 18.3332L2.73066 14.4331C2.80006 14.1786 2.83475 14.0514 2.88802 13.9327C2.93531 13.8274 2.99343 13.7273 3.06142 13.6339C3.138 13.5288 3.23125 13.4356 3.41775 13.2491L12.0289 4.63791C12.1939 4.4729 12.2764 4.3904 12.3716 4.35949C12.4553 4.3323 12.5454 4.3323 12.6291 4.35949C12.7242 4.3904 12.8067 4.4729 12.9717 4.63791L15.3623 7.02843C15.5273 7.19344 15.6098 7.27594 15.6407 7.37108C15.6679 7.45476 15.6679 7.54491 15.6407 7.62859C15.6098 7.72373 15.5273 7.80623 15.3623 7.97124L6.75108 16.5824C6.56458 16.7689 6.47134 16.8622 6.36623 16.9387C6.2729 17.0067 6.17276 17.0649 6.06742 17.1121C5.94878 17.1654 5.82156 17.2001 5.56711 17.2695L1.66699 18.3332Z" stroke="#F96B13" stroke-width="1.66667" stroke-linecap="round" stroke-linejoin="round"/>
</g>
<defs>
<clipPath id="clip0_200_6059">
<rect width="20" height="20" fill="white"/>
</clipPath>
</defs>
</svg>
