<svg width="18" height="18" viewBox="0 0 18 18" fill="none" xmlns="http://www.w3.org/2000/svg">
<path d="M5.98356 6.44029C6.56356 7.64831 7.35422 8.78051 8.35553 9.78183C9.35685 10.7831 10.4891 11.5738 11.6971 12.1538C11.801 12.2037 11.8529 12.2286 11.9187 12.2478C12.1523 12.3159 12.4392 12.267 12.637 12.1253C12.6927 12.0854 12.7403 12.0378 12.8356 11.9425C13.1269 11.6512 13.2726 11.5055 13.4191 11.4103C13.9715 11.0511 14.6837 11.0511 15.2361 11.4103C15.3825 11.5055 15.5282 11.6512 15.8196 11.9425L15.9819 12.1049C16.4248 12.5478 16.6462 12.7692 16.7665 13.0071C17.0058 13.48 17.0058 14.0386 16.7665 14.5115C16.6462 14.7494 16.4248 14.9708 15.9819 15.4137L15.8506 15.545C15.4092 15.9864 15.1886 16.2071 14.8885 16.3756C14.5556 16.5626 14.0385 16.6971 13.6567 16.6959C13.3126 16.6949 13.0774 16.6282 12.607 16.4947C10.0792 15.7772 7.69387 14.4235 5.70388 12.4335C3.7139 10.4435 2.36017 8.05819 1.6427 5.53036C1.50919 5.05999 1.44244 4.8248 1.44141 4.48068C1.44028 4.09883 1.57475 3.58175 1.76176 3.24883C1.9303 2.94881 2.15098 2.72813 2.59233 2.28678L2.72369 2.15542C3.16656 1.71255 3.388 1.49111 3.62581 1.37083C4.09878 1.1316 4.65734 1.1316 5.1303 1.37082C5.36812 1.49111 5.58955 1.71255 6.03242 2.15541L6.19481 2.31781C6.48615 2.60915 6.63182 2.75481 6.72706 2.9013C7.08622 3.4537 7.08622 4.16586 6.72706 4.71826C6.63182 4.86475 6.48615 5.01041 6.19482 5.30175C6.09955 5.39701 6.05193 5.44464 6.01206 5.50032C5.87038 5.69818 5.82146 5.98506 5.88957 6.21869C5.90873 6.28443 5.93368 6.33639 5.98356 6.44029Z" stroke="#F96B13" stroke-width="1.66667" stroke-linecap="round" stroke-linejoin="round"/>
</svg>
