<svg width="144" height="88" viewBox="0 0 144 88" fill="none" xmlns="http://www.w3.org/2000/svg">
<g clip-path="url(#clip0_156_2795)">
<path d="M0 6C0 2.68629 2.68629 0 6 0H138C141.314 0 144 2.68629 144 6V82C144 85.3137 141.314 88 138 88H6C2.68629 88 0 85.3137 0 82V6Z" fill="#F9F9F9"/>
<path fill-rule="evenodd" clip-rule="evenodd" d="M22.0975 47.5864V55.9493H18V47.5864C18 47.556 18 47.5256 18 47.4952C18.0497 42.9179 21.7945 39.2223 26.4064 39.2223C30.4848 39.2223 33.9763 42.1362 34.6842 46.1345L30.5447 46.8592C30.1907 44.8613 28.4463 43.4043 26.4064 43.4043C24.0852 43.4043 22.2032 45.2768 22.2032 47.5864H22.0975ZM91.9579 47.5864C91.9579 42.966 95.7218 39.2223 100.363 39.2223C104.443 39.2223 107.933 42.1362 108.642 46.1345L104.503 46.8592C104.149 44.8613 102.403 43.4043 100.363 43.4043C98.0431 43.4043 96.1611 45.2768 96.1611 47.5864C96.1611 49.896 98.0431 51.7685 100.363 51.7685C102.403 51.7685 104.149 50.3103 104.503 48.3124L108.642 49.0383C107.933 53.0354 104.443 55.9493 100.363 55.9493C95.7218 55.9493 91.9579 52.2056 91.9579 47.5864ZM56.682 40.3929C57.9184 39.6809 59.3547 39.2729 60.8852 39.2729C65.5239 39.2729 69.2904 43.0205 69.2904 47.6358C69.2904 52.2525 65.5239 56 60.8852 56C56.2453 56 52.4788 52.2525 52.4788 47.6358C52.4788 47.6067 52.4788 47.5763 52.4788 47.5459V31H56.682V40.3929ZM56.682 47.5459C56.6808 47.5763 56.682 47.6067 56.682 47.6358C56.682 49.9442 58.5653 51.8179 60.8852 51.8179C63.2039 51.8179 65.0872 49.9442 65.0872 47.6358C65.0872 45.3288 63.2039 43.455 60.8852 43.455C58.5958 43.455 56.7304 45.2794 56.682 47.5459ZM91.4219 47.6029C91.4219 52.2195 87.6554 55.9671 83.0167 55.9671C78.3768 55.9671 74.6103 52.2195 74.6103 47.6042C74.6103 42.9875 78.3768 39.24 83.0167 39.24C84.5472 39.24 85.9823 39.648 87.2187 40.36V31.0583H91.4219V47.6029ZM87.2187 47.6029C87.2187 45.2958 85.3354 43.4221 83.0167 43.4221C80.6967 43.4221 78.8135 45.2958 78.8135 47.6042C78.8135 49.9112 80.6967 51.785 83.0167 51.785C85.3354 51.785 87.2187 49.9112 87.2187 47.6029ZM74.0653 39.4034V55.9493H69.8621V39.4034H74.0653ZM71.9631 34.2078C73.1231 34.2078 74.0653 35.1441 74.0653 36.2982C74.0653 37.4524 73.1231 38.3886 71.9631 38.3886C70.8031 38.3886 69.8621 37.4524 69.8621 36.2982C69.8621 35.1441 70.8031 34.2078 71.9631 34.2078ZM117.594 39.2223C122.234 39.2223 126 42.9698 126 47.5864C126 52.2018 122.234 55.9493 117.594 55.9493C112.954 55.9493 109.187 52.2018 109.187 47.5864C109.187 42.9698 112.954 39.2223 117.594 39.2223ZM117.594 43.4043C115.274 43.4043 113.39 45.2781 113.39 47.5864C113.39 49.8935 115.274 51.7672 117.594 51.7672C119.914 51.7672 121.797 49.8935 121.797 47.5864C121.797 45.2781 119.914 43.4043 117.594 43.4043ZM43.5898 39.2223C48.2298 39.2223 51.9962 42.9698 51.9962 47.5864C51.9962 52.2018 48.2298 55.9493 43.5898 55.9493C38.9511 55.9493 35.1847 52.2018 35.1847 47.5864C35.1847 42.9698 38.9511 39.2223 43.5898 39.2223ZM43.5898 43.4043C41.2711 43.4043 39.3866 45.2781 39.3866 47.5864C39.3866 49.8935 41.2711 51.7672 43.5898 51.7672C45.9098 51.7672 47.793 49.8935 47.793 47.5864C47.793 45.2781 45.9098 43.4043 43.5898 43.4043Z" fill="#FBA600"/>
</g>
<defs>
<clipPath id="clip0_156_2795">
<rect width="144" height="88" rx="6" fill="white"/>
</clipPath>
</defs>
</svg>
