<svg width="20" height="21" viewBox="0 0 20 21" fill="none" xmlns="http://www.w3.org/2000/svg">
<g id="settings-03">
<path id="Icon" d="M12.5421 8H4.58333C3.43274 8 2.5 7.06726 2.5 5.91667C2.5 4.76607 3.43274 3.83333 4.58333 3.83333H12.5421M7.45791 17.1667H15.4167C16.5673 17.1667 17.5 16.2339 17.5 15.0833C17.5 13.9327 16.5673 13 15.4167 13H7.45791M2.5 15.0833C2.5 16.6942 3.80584 18 5.41667 18C7.0275 18 8.33333 16.6942 8.33333 15.0833C8.33333 13.4725 7.0275 12.1667 5.41667 12.1667C3.80584 12.1667 2.5 13.4725 2.5 15.0833ZM17.5 5.91667C17.5 7.5275 16.1942 8.83333 14.5833 8.83333C12.9725 8.83333 11.6667 7.5275 11.6667 5.91667C11.6667 4.30584 12.9725 3 14.5833 3C16.1942 3 17.5 4.30584 17.5 5.91667Z" stroke="#F96B13" stroke-width="1.66667" stroke-linecap="round" stroke-linejoin="round"/>
</g>
</svg>
