<svg width="144" height="88" viewBox="0 0 144 88" fill="none" xmlns="http://www.w3.org/2000/svg">
<rect width="144" height="88" rx="6" fill="#201A34"/>
<path fill-rule="evenodd" clip-rule="evenodd" d="M21.0103 31.365L23.8283 28.5468H26.8226L33.7552 35.4794V38.4737L30.937 41.2918L21.0103 31.365Z" fill="#00BD6B"/>
<path fill-rule="evenodd" clip-rule="evenodd" d="M30.7465 55.7104L27.9285 58.5285H24.9342L18.0016 51.5959V48.6016L20.8197 45.7836L30.7465 55.7104Z" fill="#00BD6B"/>
<path fill-rule="evenodd" clip-rule="evenodd" d="M33.7345 52.7133V47.076L19.5162 32.8578L18.0227 34.3583V39.9958L32.2408 54.2141L33.7345 52.7133Z" fill="#00BD6B"/>
<path fill-rule="evenodd" clip-rule="evenodd" d="M49.7057 40.3506C49.5482 39.4721 48.8272 38.0982 46.7999 38.0982C45.2907 38.0982 44.2997 39.0665 44.2997 40.1253C44.2997 41.0038 44.8629 41.702 46.0339 41.9273L48.2641 42.3552C51.1697 42.9183 52.7241 44.8104 52.7241 47.063C52.7241 49.5185 50.6743 51.9962 46.9577 51.9962C42.723 51.9962 40.8532 49.2707 40.6054 46.9955L43.4884 46.2295C43.6237 47.8065 44.7276 49.2254 46.9802 49.2254C48.6469 49.2254 49.5707 48.3922 49.5707 47.2658C49.5707 46.3421 48.8723 45.6216 47.6334 45.3735L45.4033 44.9232C42.858 44.4053 41.2136 42.7605 41.2136 40.3506C41.2136 37.5123 43.7588 35.3499 46.7774 35.3499C50.6518 35.3499 52.1384 37.6923 52.4988 39.4946L49.7057 40.3506Z" fill="#00BD6B"/>
<path fill-rule="evenodd" clip-rule="evenodd" d="M58.9404 40.5753H61.1705V43.2336H58.9404V47.8736C58.9404 48.8421 59.3907 49.1575 60.2467 49.1575C60.6071 49.1575 61.0124 49.1125 61.1705 49.0672V51.5452C60.9002 51.6577 60.3593 51.8155 59.481 51.8155C57.3184 51.8155 55.967 50.5314 55.967 48.3918V43.2336H53.9622V40.5753H54.5254C55.6967 40.5753 56.2373 39.8098 56.2373 38.8183V37.2643H58.9404V40.5753Z" fill="#00BD6B"/>
<path fill-rule="evenodd" clip-rule="evenodd" d="M69.9792 47.1753V46.6797L67.479 47.0625C66.713 47.1753 66.1051 47.6034 66.1051 48.4594C66.1051 49.1124 66.578 49.743 67.5465 49.743C68.8079 49.743 69.9792 49.1349 69.9792 47.1753ZM66.4202 45.2833L69.146 44.8776C69.7767 44.7876 69.9792 44.4723 69.9792 44.0892C69.9792 43.3009 69.371 42.6478 68.1097 42.6478C66.8033 42.6478 66.0823 43.4813 65.9923 44.4498L63.3346 43.8869C63.5146 42.1521 65.1138 40.2373 68.0872 40.2373C71.6012 40.2373 72.9078 42.2196 72.9078 44.4498V49.9011C72.9078 50.4865 72.9751 51.275 73.0428 51.6576H70.2948C70.227 51.365 70.182 50.7568 70.182 50.329C69.6189 51.2075 68.56 51.9729 66.9158 51.9729C64.5506 51.9729 63.109 50.374 63.109 48.6395C63.109 46.6572 64.5732 45.5533 66.4202 45.2833Z" fill="#00BD6B"/>
<path fill-rule="evenodd" clip-rule="evenodd" d="M80.8113 49.2482C82.3427 49.2482 83.5365 48.0768 83.5365 46.072C83.5365 44.0897 82.3427 42.9861 80.8113 42.9861C79.2793 42.9861 78.0632 44.1122 78.0632 46.0945C78.0632 48.0768 79.2346 49.2482 80.8113 49.2482ZM86.4426 49.6535C86.4426 50.3967 86.4876 51.2077 86.5324 51.6581H83.6718C83.6268 51.4328 83.5593 50.8924 83.5593 50.3742C83.0636 51.2527 81.9373 51.9284 80.4506 51.9284C77.2972 51.9284 75.0449 49.4507 75.0449 46.0945C75.0449 42.8508 77.2295 40.3053 80.3606 40.3053C82.2752 40.3053 83.1764 41.0935 83.4915 41.6795V35.3499H86.4426V49.6535Z" fill="#00BD6B"/>
<path fill-rule="evenodd" clip-rule="evenodd" d="M89.6885 51.6578H92.6843V40.5754H89.6885V51.6578ZM91.1749 35.0793C92.2112 35.0793 93.0219 35.9128 93.0219 36.9491C93.0219 37.9398 92.2112 38.7736 91.1749 38.7736C90.1613 38.7736 89.3279 37.9398 89.3279 36.9491C89.3279 35.9128 90.1613 35.0793 91.1749 35.0793Z" fill="#00BD6B"/>
<path fill-rule="evenodd" clip-rule="evenodd" d="M103.047 50.4644C102.439 51.5004 101.155 51.9508 99.9831 51.9508C97.3028 51.9508 95.7709 49.9909 95.7709 47.581V40.5755H98.7667V46.9728C98.7667 48.2117 99.3977 49.2027 100.794 49.2027C102.123 49.2027 102.889 48.3017 102.889 47.0181V40.5755H105.885V49.6534C105.885 50.5091 105.953 51.2751 105.998 51.6579H103.137C103.092 51.4326 103.047 50.9147 103.047 50.4644Z" fill="#00BD6B"/>
<path fill-rule="evenodd" clip-rule="evenodd" d="M109.084 51.6578V40.5754H111.944V41.9271C112.553 40.8457 113.972 40.2601 115.188 40.2601C116.697 40.2601 117.914 40.9133 118.477 42.1074C119.355 40.7557 120.527 40.2601 121.991 40.2601C124.041 40.2601 126 41.4989 126 44.4725V51.6578H123.094V45.0805C123.094 43.8869 122.509 42.9859 121.135 42.9859C119.851 42.9859 119.085 43.9766 119.085 45.1707V51.6578H116.112V45.0805C116.112 43.8869 115.503 42.9859 114.152 42.9859C112.845 42.9859 112.079 43.9541 112.079 45.1707V51.6578H109.084Z" fill="#00BD6B"/>
</svg>
