<svg width="20" height="21" viewBox="0 0 20 21" fill="none" xmlns="http://www.w3.org/2000/svg">
<g id="star-06">
<path id="Icon" d="M3.75033 18.8335V14.6669M3.75033 6.33354V2.16687M1.66699 4.2502H5.83366M1.66699 16.7502H5.83366M10.8337 3.0002L9.38851 6.75759C9.1535 7.36861 9.036 7.67413 8.85327 7.93111C8.69132 8.15887 8.49232 8.35786 8.26456 8.51981C8.00758 8.70254 7.70207 8.82005 7.09104 9.05506L3.33366 10.5002L7.09104 11.9454C7.70207 12.1804 8.00758 12.2979 8.26456 12.4806C8.49232 12.6425 8.69132 12.8415 8.85327 13.0693C9.036 13.3263 9.1535 13.6318 9.38851 14.2428L10.8337 18.0002L12.2788 14.2428C12.5138 13.6318 12.6313 13.3263 12.8141 13.0693C12.976 12.8415 13.175 12.6425 13.4028 12.4806C13.6597 12.2979 13.9652 12.1804 14.5763 11.9454L18.3337 10.5002L14.5763 9.05505C13.9652 8.82005 13.6597 8.70254 13.4028 8.51981C13.175 8.35786 12.976 8.15887 12.814 7.93111C12.6313 7.67413 12.5138 7.36861 12.2788 6.75759L10.8337 3.0002Z" stroke="#F96B13" stroke-width="1.67" stroke-linecap="round" stroke-linejoin="round"/>
</g>
</svg>
