<svg width="43" height="42" viewBox="0 0 43 42" fill="none" xmlns="http://www.w3.org/2000/svg">
<g id="stars-01">
<g id="Icon">
<path d="M11.875 22.75L13.2478 25.4956C13.7124 26.4248 13.9447 26.8894 14.2551 27.292C14.5304 27.6493 14.8507 27.9696 15.208 28.2449C15.6106 28.5553 16.0752 28.7876 17.0044 29.2522L19.75 30.625L17.0044 31.9978C16.0752 32.4624 15.6106 32.6947 15.208 33.0051C14.8507 33.2804 14.5304 33.6007 14.2551 33.958C13.9447 34.3606 13.7124 34.8252 13.2478 35.7544L11.875 38.5L10.5022 35.7544C10.0376 34.8252 9.80529 34.3606 9.49495 33.958C9.21956 33.6007 8.89929 33.2804 8.54203 33.0051C8.13942 32.6947 7.67482 32.4624 6.7456 31.9978L4 30.625L6.7456 29.2522C7.67482 28.7876 8.13942 28.5553 8.54203 28.2449C8.89929 27.9696 9.21956 27.6493 9.49495 27.292C9.80529 26.8894 10.0376 26.4248 10.5022 25.4956L11.875 22.75Z" stroke="#F96B13" stroke-width="3.5" stroke-linecap="round" stroke-linejoin="round"/>
<path d="M26.75 3.5L28.8126 8.86273C29.3061 10.1459 29.5529 10.7875 29.9366 11.3271C30.2767 11.8054 30.6946 12.2233 31.1729 12.5634C31.7125 12.9471 32.3541 13.1939 33.6373 13.6874L39 15.75L33.6373 17.8126C32.3541 18.3061 31.7125 18.5529 31.1729 18.9366C30.6946 19.2767 30.2767 19.6946 29.9366 20.1729C29.5529 20.7125 29.3061 21.3541 28.8126 22.6373L26.75 28L24.6874 22.6373C24.1939 21.3541 23.9471 20.7125 23.5634 20.1729C23.2233 19.6946 22.8054 19.2767 22.3271 18.9366C21.7875 18.5529 21.1459 18.3061 19.8627 17.8126L14.5 15.75L19.8627 13.6874C21.1459 13.1939 21.7875 12.9471 22.3271 12.5634C22.8054 12.2233 23.2233 11.8054 23.5634 11.3271C23.9471 10.7875 24.1939 10.1459 24.6874 8.86273L26.75 3.5Z" stroke="#F96B13" stroke-width="3.5" stroke-linecap="round" stroke-linejoin="round"/>
</g>
</g>
</svg>
