<svg width="38" height="39" viewBox="0 0 38 39" fill="none" xmlns="http://www.w3.org/2000/svg">
<g id="star-06">
<path id="Icon" d="M7.1263 35.3337V27.417M7.1263 11.5837V3.66699M3.16797 7.62533H11.0846M3.16797 31.3753H11.0846M20.5846 5.25033L17.8389 12.3894C17.3923 13.5503 17.1691 14.1308 16.8219 14.619C16.5142 15.0518 16.1361 15.4299 15.7034 15.7376C15.2151 16.0848 14.6346 16.308 13.4737 16.7545L6.33464 19.5003L13.4737 22.2461C14.6346 22.6926 15.2151 22.9159 15.7034 23.2631C16.1361 23.5708 16.5142 23.9489 16.8219 24.3816C17.1691 24.8699 17.3923 25.4503 17.8389 26.6113L20.5846 33.7503L23.3304 26.6113C23.7769 25.4503 24.0002 24.8699 24.3474 24.3816C24.6551 23.9489 25.0332 23.5708 25.4659 23.2631C25.9542 22.9159 26.5347 22.6926 27.6956 22.2461L34.8346 19.5003L27.6956 16.7545C26.5347 16.308 25.9542 16.0848 25.4659 15.7376C25.0332 15.4299 24.6551 15.0518 24.3474 14.619C24.0002 14.1308 23.7769 13.5503 23.3304 12.3894L20.5846 5.25033Z" stroke="#181D27" stroke-width="3" stroke-linecap="round" stroke-linejoin="round"/>
</g>
</svg>
