<svg width="16" height="16" viewBox="0 0 16 16" fill="none" xmlns="http://www.w3.org/2000/svg">
<g id="users-01">
<path id="Icon" d="M14.6668 14.0001V12.6667C14.6668 11.4242 13.817 10.3801 12.6668 10.0841M10.3335 2.1939C11.3108 2.58949 12.0002 3.5476 12.0002 4.66673C12.0002 5.78585 11.3108 6.74396 10.3335 7.13956M11.3335 14.0001C11.3335 12.7576 11.3335 12.1363 11.1305 11.6462C10.8599 10.9928 10.3407 10.4737 9.68732 10.203C9.19726 10.0001 8.57601 10.0001 7.3335 10.0001H5.3335C4.09099 10.0001 3.46973 10.0001 2.97967 10.203C2.32627 10.4737 1.80713 10.9928 1.53648 11.6462C1.3335 12.1363 1.3335 12.7576 1.3335 14.0001M9.00016 4.66673C9.00016 6.13949 7.80625 7.33339 6.3335 7.33339C4.86074 7.33339 3.66683 6.13949 3.66683 4.66673C3.66683 3.19397 4.86074 2.00006 6.3335 2.00006C7.80625 2.00006 9.00016 3.19397 9.00016 4.66673Z" stroke="#F96B13" stroke-width="1.33333" stroke-linecap="round" stroke-linejoin="round"/>
</g>
</svg>
