<svg width="154" height="44" viewBox="0 0 154 44" fill="none" xmlns="http://www.w3.org/2000/svg">
<path fill-rule="evenodd" clip-rule="evenodd" d="M4.28296 4.67724L8.29328 0.666748H12.5544L22.4202 10.5325V14.7936L18.4097 18.8039L4.28296 4.67724Z" fill="#BEBEBE"/>
<path fill-rule="evenodd" clip-rule="evenodd" d="M18.1372 39.323L14.1269 43.3335H9.86573L0 33.4678V29.2066L4.01049 25.1963L18.1372 39.323Z" fill="#BEBEBE"/>
<path fill-rule="evenodd" clip-rule="evenodd" d="M22.3914 35.0579V27.0356L2.15763 6.80176L0.0322266 8.93716V16.9599L20.2659 37.1937L22.3914 35.0579Z" fill="#BEBEBE"/>
<path fill-rule="evenodd" clip-rule="evenodd" d="M45.1186 17.4644C44.8944 16.2143 43.8684 14.2591 40.9833 14.2591C38.8356 14.2591 37.4253 15.637 37.4253 17.1438C37.4253 18.394 38.2267 19.3876 39.8933 19.7082L43.067 20.3171C47.2019 21.1186 49.414 23.8111 49.414 27.0168C49.414 30.5112 46.4969 34.0372 41.2079 34.0372C35.1815 34.0372 32.5206 30.1585 32.168 26.9207L36.2708 25.8307C36.4634 28.0748 38.0342 30.0941 41.2399 30.0941C43.6118 30.0941 44.9264 28.9083 44.9264 27.3054C44.9264 25.9908 43.9325 24.9656 42.1695 24.6125L38.9958 23.9716C35.3737 23.2346 33.0335 20.894 33.0335 17.4644C33.0335 13.4253 36.6555 10.348 40.9513 10.348C46.4649 10.348 48.5805 13.6815 49.0934 16.2463L45.1186 17.4644Z" fill="#BEBEBE"/>
<path fill-rule="evenodd" clip-rule="evenodd" d="M58.2612 17.7841H61.4349V21.5671H58.2612V28.1703C58.2612 29.5486 58.9021 29.9974 60.1202 29.9974C60.633 29.9974 61.2099 29.9333 61.4349 29.8689V33.3953C61.0502 33.5554 60.2804 33.78 59.0306 33.78C55.9529 33.78 54.0298 31.9526 54.0298 28.9077V21.5671H51.1768V17.7841H51.9782C53.6451 17.7841 54.4145 16.6948 54.4145 15.2838V13.0724H58.2612V17.7841Z" fill="#BEBEBE"/>
<path fill-rule="evenodd" clip-rule="evenodd" d="M73.9674 27.1767V26.4714L70.4093 27.0162C69.3193 27.1767 68.4542 27.786 68.4542 29.0042C68.4542 29.9333 69.1271 30.8308 70.5054 30.8308C72.3005 30.8308 73.9674 29.9654 73.9674 27.1767ZM68.9026 24.4842L72.7816 23.907C73.6791 23.7789 73.9674 23.3301 73.9674 22.7849C73.9674 21.6632 73.1019 20.7336 71.3069 20.7336C69.4478 20.7336 68.4218 21.9198 68.2937 23.2981L64.5115 22.497C64.7677 20.0283 67.0435 17.3033 71.2748 17.3033C76.2756 17.3033 78.135 20.1244 78.135 23.2981V31.0558C78.135 31.8889 78.2307 33.011 78.3272 33.5554H74.4165C74.32 33.1391 74.256 32.2736 74.256 31.6647C73.4546 32.9149 71.9478 34.0042 69.6079 34.0042C66.2421 34.0042 64.1904 31.7287 64.1904 29.2604C64.1904 26.4394 66.2741 24.8685 68.9026 24.4842Z" fill="#BEBEBE"/>
<path fill-rule="evenodd" clip-rule="evenodd" d="M89.387 30.1265C91.5664 30.1265 93.2653 28.4595 93.2653 25.6065C93.2653 22.7855 91.5664 21.215 89.387 21.215C87.2069 21.215 85.4763 22.8175 85.4763 25.6385C85.4763 28.4595 87.1432 30.1265 89.387 30.1265ZM97.4009 30.7033C97.4009 31.761 97.465 32.9151 97.5287 33.556H93.4578C93.3938 33.2354 93.2977 32.4663 93.2977 31.7289C92.5924 32.9791 90.9895 33.9407 88.8738 33.9407C84.3863 33.9407 81.1809 30.4147 81.1809 25.6385C81.1809 21.0225 84.2898 17.4 88.7457 17.4C91.4703 17.4 92.7529 18.5217 93.2012 19.3556V10.348H97.4009V30.7033Z" fill="#BEBEBE"/>
<path fill-rule="evenodd" clip-rule="evenodd" d="M102.018 33.5557H106.281V17.7844H102.018V33.5557ZM104.133 9.96301C105.608 9.96301 106.762 11.1491 106.762 12.6239C106.762 14.0338 105.608 15.2204 104.133 15.2204C102.691 15.2204 101.505 14.0338 101.505 12.6239C101.505 11.1491 102.691 9.96301 104.133 9.96301Z" fill="#BEBEBE"/>
<path fill-rule="evenodd" clip-rule="evenodd" d="M121.026 31.8574C120.16 33.3318 118.333 33.9727 116.666 33.9727C112.852 33.9727 110.671 31.1837 110.671 27.7541V17.7847H114.935V26.8887C114.935 28.6517 115.833 30.062 117.82 30.062C119.711 30.062 120.801 28.7798 120.801 26.9531V17.7847H125.064V30.7033C125.064 31.9211 125.161 33.0111 125.225 33.5559H121.154C121.09 33.2353 121.026 32.4983 121.026 31.8574Z" fill="#BEBEBE"/>
<path fill-rule="evenodd" clip-rule="evenodd" d="M129.617 33.5559V17.7846H133.688V19.7081C134.553 18.1693 136.573 17.3358 138.304 17.3358C140.452 17.3358 142.183 18.2654 142.984 19.9647C144.234 18.0412 145.901 17.3358 147.985 17.3358C150.902 17.3358 153.691 19.0988 153.691 23.3305V33.5559H149.555V24.1956C149.555 22.4971 148.722 21.2149 146.766 21.2149C144.94 21.2149 143.85 22.6248 143.85 24.3241V33.5559H139.618V24.1956C139.618 22.4971 138.752 21.2149 136.829 21.2149C134.97 21.2149 133.88 22.5928 133.88 24.3241V33.5559H129.617Z" fill="#BEBEBE"/>
</svg>
