<svg width="146" height="34" viewBox="0 0 146 34" fill="none" xmlns="http://www.w3.org/2000/svg">
<path fill-rule="evenodd" clip-rule="evenodd" d="M6.16533 22.5212V33.8204H0.657715V22.5212C0.657715 22.4801 0.657715 22.439 0.657715 22.3979C0.724463 16.2134 5.75799 11.2203 11.957 11.2203C17.439 11.2203 22.1319 15.1573 23.0835 20.5595L17.5194 21.5387C17.0436 18.8392 14.6989 16.8707 11.957 16.8707C8.83698 16.8707 6.30738 19.4007 6.30738 22.5212H6.16533ZM100.067 22.5212C100.067 16.2785 105.126 11.2203 111.364 11.2203C116.848 11.2203 121.539 15.1573 122.493 20.5595L116.929 21.5387C116.453 18.8392 114.106 16.8707 111.364 16.8707C108.246 16.8707 105.717 19.4007 105.717 22.5212C105.717 25.6417 108.246 28.1716 111.364 28.1716C114.106 28.1716 116.453 26.2014 116.929 23.502L122.493 24.4828C121.539 29.8834 116.848 33.8204 111.364 33.8204C105.126 33.8204 100.067 28.7622 100.067 22.5212ZM52.6514 12.8019C54.3133 11.8399 56.2439 11.2888 58.3011 11.2888C64.5361 11.2888 69.5987 16.3521 69.5987 22.588C69.5987 28.8255 64.5361 33.8889 58.3011 33.8889C52.0644 33.8889 47.0018 28.8255 47.0018 22.588C47.0018 22.5486 47.0018 22.5075 47.0018 22.4664V0.111084H52.6514V12.8019ZM52.6514 22.4664C52.6497 22.5075 52.6514 22.5486 52.6514 22.588C52.6514 25.7067 55.1827 28.2384 58.3011 28.2384C61.4177 28.2384 63.949 25.7067 63.949 22.588C63.949 19.4709 61.4177 16.9392 58.3011 16.9392C55.2238 16.9392 52.7165 19.4041 52.6514 22.4664ZM99.3463 22.5434C99.3463 28.781 94.2837 33.8444 88.0487 33.8444C81.812 33.8444 76.7494 28.781 76.7494 22.5452C76.7494 16.3076 81.812 11.2442 88.0487 11.2442C90.1059 11.2442 92.0348 11.7954 93.6967 12.7574V0.189824H99.3463V22.5434ZM93.6967 22.5434C93.6967 19.4264 91.1654 16.8947 88.0487 16.8947C84.9304 16.8947 82.399 19.4264 82.399 22.5452C82.399 25.6622 84.9304 28.1939 88.0487 28.1939C91.1654 28.1939 93.6967 25.6622 93.6967 22.5434ZM76.0168 11.4651V33.8204H70.3672V11.4651H76.0168ZM73.1912 4.44521C74.7503 4.44521 76.0168 5.71019 76.0168 7.26958C76.0168 8.82898 74.7503 10.094 73.1912 10.094C71.632 10.094 70.3672 8.82898 70.3672 7.26958C70.3672 5.71019 71.632 4.44521 73.1912 4.44521ZM134.525 11.2203C140.761 11.2203 145.824 16.2836 145.824 22.5212C145.824 28.7571 140.761 33.8204 134.525 33.8204C128.288 33.8204 123.225 28.7571 123.225 22.5212C123.225 16.2836 128.288 11.2203 134.525 11.2203ZM134.525 16.8707C131.406 16.8707 128.875 19.4024 128.875 22.5212C128.875 25.6383 131.406 28.1699 134.525 28.1699C137.643 28.1699 140.174 25.6383 140.174 22.5212C140.174 19.4024 137.643 16.8707 134.525 16.8707ZM35.0538 11.2203C41.2905 11.2203 46.3531 16.2836 46.3531 22.5212C46.3531 28.7571 41.2905 33.8204 35.0538 33.8204C28.8188 33.8204 23.7561 28.7571 23.7561 22.5212C23.7561 16.2836 28.8188 11.2203 35.0538 11.2203ZM35.0538 16.8707C31.9371 16.8707 29.4041 19.4024 29.4041 22.5212C29.4041 25.6383 31.9371 28.1699 35.0538 28.1699C38.1721 28.1699 40.7034 25.6383 40.7034 22.5212C40.7034 19.4024 38.1721 16.8707 35.0538 16.8707Z" fill="#BEBEBE"/>
</svg>
