<svg width="91" height="44" viewBox="0 0 91 44" fill="none" xmlns="http://www.w3.org/2000/svg">
<g clip-path="url(#clip0_434_2026)">
<path d="M83.9666 12.1962C84.0313 7.9874 82.5812 3.89552 79.8805 0.666748H86.6046C88.9958 4.02979 90.247 8.07035 90.1747 12.1962V12.2134C90.2465 16.3469 88.9908 20.3945 86.5921 23.7616H79.868C82.578 20.5301 84.0331 16.4304 83.9666 12.2134V12.1962Z" fill="#BEBEBE"/>
<path d="M6.65976 0.666748H0.454834L8.9694 23.7569H12.2673L13.72 19.8163L6.65976 0.666748Z" fill="#BEBEBE"/>
<path d="M23.303 0.666748H17.0981L25.6189 23.7569H28.9028L30.3555 19.8163L23.303 0.666748Z" fill="#BEBEBE"/>
<path d="M70.6948 43.3334V0.666748H64.7526V43.3334H70.6948Z" fill="#BEBEBE"/>
<path d="M36.6644 4.09134C36.7305 2.91199 37.0014 1.75315 37.465 0.666748H42.9006C42.5885 1.2429 42.3931 1.87493 42.3254 2.52668C42.2578 3.17844 42.3194 3.83712 42.5065 4.46508C42.9672 5.73775 43.8665 6.80449 45.0429 7.47371C46.4901 8.2693 47.9901 8.96471 49.5324 9.55505C51.1077 10.2169 52.5817 11.0976 53.9109 12.1712C54.8372 12.9152 55.601 13.8415 56.1548 14.8927C56.7086 15.9439 57.0408 17.0975 57.1306 18.2823C57.1541 18.5825 57.1635 18.8843 57.1635 19.1877C57.2029 20.763 56.8764 22.326 56.2096 23.7538H50.6349C51.2524 22.7374 51.5655 21.5651 51.5371 20.3761C51.3417 17.4676 47.7842 15.8757 44.813 14.5543C44.3596 14.3448 43.9139 14.1556 43.4886 13.9554C42.1627 13.3696 40.9172 12.6166 39.7825 11.7146C38.6421 10.8603 37.7552 9.71227 37.2164 8.39319C36.757 7.15177 36.5589 5.82883 36.6347 4.5073C36.6456 4.36812 36.6456 4.22895 36.6644 4.09134Z" fill="#BEBEBE"/>
</g>
<defs>
<clipPath id="clip0_434_2026">
<rect width="89.7149" height="42.6667" fill="white" transform="translate(0.454346 0.666626)"/>
</clipPath>
</defs>
</svg>
