<svg width="190" height="44" viewBox="0 0 190 44" fill="none" xmlns="http://www.w3.org/2000/svg">
<path d="M21.5509 43.3333C9.79114 43.3333 0.217529 33.7597 0.217529 22C0.217529 10.2402 9.79114 0.666626 21.5509 0.666626C25.5085 0.666626 29.3907 1.75968 32.7452 3.8327C34.4413 4.88806 34.969 7.11186 33.9136 8.80797C32.8583 10.5041 30.6345 11.0318 28.9384 9.9764C26.7146 8.61951 24.1139 7.86568 21.5132 7.86568C13.7487 7.86568 7.41659 14.1978 7.41659 21.9623C7.41659 29.7267 13.7487 36.0589 21.5132 36.0589C24.1516 36.0589 26.7146 35.3427 28.9007 33.9481C30.5968 32.8928 32.8206 33.4205 33.8759 35.1166C34.9313 36.8127 34.4036 39.0365 32.7075 40.0918C29.3907 42.2402 25.5462 43.3333 21.5509 43.3333Z" fill="#BEBEBE"/>
<path d="M21.4382 30.9328C26.3509 30.9328 30.3334 26.9503 30.3334 22.0376C30.3334 17.125 26.3509 13.1425 21.4382 13.1425C16.5255 13.1425 12.543 17.125 12.543 22.0376C12.543 26.9503 16.5255 30.9328 21.4382 30.9328Z" fill="#BEBEBE"/>
<path d="M41.2633 15.4042C42.5825 15.4042 43.6001 15.7434 44.2786 16.4218C44.957 17.1003 45.2963 18.0426 45.2963 19.2864C45.2963 20.5302 44.957 21.4725 44.2786 22.1509C43.6001 22.8294 42.5825 23.1686 41.2633 23.1686H37.6072C37.3811 23.1686 37.2303 23.3194 37.2303 23.5455V28.1816C37.2303 28.4077 37.0795 28.5585 36.8534 28.5585H35.8357C35.6096 28.5585 35.4588 28.4077 35.4588 28.1816V15.7811C35.4588 15.5926 35.6096 15.4042 35.8357 15.4042H41.2633ZM40.6602 21.6986C41.6402 21.6986 42.394 21.5102 42.8463 21.0956C43.2986 20.681 43.5248 20.0779 43.5248 19.2864C43.5248 18.4949 43.2986 17.8918 42.8463 17.4772C42.394 17.0626 41.6402 16.8741 40.6602 16.8741H37.6072C37.3811 16.8741 37.2303 17.0249 37.2303 17.2511V21.3217C37.2303 21.5102 37.3811 21.6986 37.6072 21.6986H40.6602Z" fill="#BEBEBE"/>
<path d="M47.1812 19.0227C47.4073 19.0227 47.5581 19.1734 47.5581 19.3996V21.0203H47.5958C47.9727 20.2665 48.425 19.6634 48.9904 19.3242C49.4427 19.0227 50.008 18.8342 50.6865 18.7965C50.9126 18.7965 51.1011 18.9473 51.1011 19.1734V20.078C51.1011 20.2665 50.9503 20.4549 50.7619 20.4549C50.2719 20.4926 49.8573 20.568 49.5181 20.7188C49.0658 20.9072 48.7265 21.1334 48.4627 21.4726C48.1989 21.8118 48.0104 22.2264 47.8596 22.6787C47.7466 23.131 47.6712 23.6964 47.6712 24.2995V28.1817C47.6712 28.4078 47.5204 28.5586 47.2943 28.5586H46.465C46.2389 28.5586 46.0881 28.4078 46.0881 28.1817V19.3996C46.0881 19.2111 46.2389 19.0227 46.465 19.0227C46.4274 19.0227 47.1812 19.0227 47.1812 19.0227Z" fill="#BEBEBE"/>
<path d="M50.9878 21.8497C51.1763 21.2466 51.4778 20.7189 51.8924 20.2666C52.2693 19.8143 52.7593 19.4751 53.3624 19.2113C53.9654 18.9474 54.6062 18.8344 55.36 18.8344C56.1138 18.8344 56.7923 18.9474 57.3577 19.2113C57.923 19.4751 58.413 19.8143 58.7899 20.2666C59.1668 20.7189 59.4684 21.2466 59.6945 21.8497C59.883 22.4527 59.9961 23.0935 59.9961 23.8096C59.9961 24.5258 59.883 25.1665 59.6945 25.7696C59.5061 26.3726 59.2045 26.9003 58.7899 27.3526C58.413 27.8049 57.923 28.1441 57.3577 28.408C56.7923 28.6718 56.1138 28.7849 55.36 28.7849C54.6062 28.7849 53.9277 28.6718 53.3624 28.408C52.797 28.1441 52.307 27.8049 51.8924 27.3526C51.5155 26.9003 51.214 26.3726 50.9878 25.7696C50.7994 25.1665 50.6863 24.5258 50.6863 23.8096C50.6863 23.0935 50.7994 22.4527 50.9878 21.8497ZM52.5708 25.3173C52.7216 25.7696 52.9478 26.1465 53.2116 26.448C53.4754 26.7495 53.8147 26.9757 54.1539 27.1265C54.4931 27.2772 54.9077 27.3526 55.3223 27.3526C55.7369 27.3526 56.1138 27.2772 56.4908 27.1265C56.8677 26.9757 57.1692 26.7495 57.433 26.448C57.6969 26.1465 57.923 25.7696 58.0738 25.3173C58.2246 24.865 58.2999 24.375 58.2999 23.7719C58.2999 23.1689 58.2246 22.6789 58.0738 22.2266C57.923 21.7743 57.6969 21.3974 57.433 21.0958C57.1692 20.7943 56.83 20.5682 56.4908 20.3797C56.1138 20.2289 55.7369 20.1535 55.3223 20.1535C54.9077 20.1535 54.5308 20.2289 54.1539 20.3797C53.777 20.5305 53.4754 20.7566 53.2116 21.0958C52.9478 21.3974 52.7216 21.7743 52.5708 22.2266C52.4201 22.6789 52.3447 23.1689 52.3447 23.7719C52.3447 24.375 52.4201 24.865 52.5708 25.3173Z" fill="#BEBEBE"/>
<path d="M59.8833 20.0403V19.3996C59.8833 19.2111 60.0341 19.0227 60.2602 19.0227H61.1271C61.3533 19.0227 61.504 18.8719 61.504 18.6457V17.5904C61.504 16.8366 61.7302 16.2335 62.1825 15.8189C62.6348 15.4043 63.2755 15.2158 64.1424 15.2158C64.2932 15.2158 64.444 15.2158 64.6324 15.2535C64.7078 15.2535 64.7832 15.2912 64.8586 15.2912C65.047 15.3289 65.1601 15.4797 65.1601 15.6681V16.7235C65.0093 16.6858 64.8586 16.6481 64.7078 16.6104C64.557 16.5727 64.4063 16.5727 64.2555 16.5727C63.8786 16.5727 63.5771 16.6481 63.3509 16.7989C63.1248 16.9496 63.0494 17.2135 63.0494 17.6281V18.5704C63.0494 18.7588 63.2001 18.9473 63.4263 18.9473H64.5193C64.7455 18.9473 64.8963 19.098 64.8963 19.3242V19.9649C64.8963 20.1534 64.7455 20.3419 64.5193 20.3419H63.4263C63.2001 20.3419 63.0494 20.4926 63.0494 20.7188V28.1817C63.0494 28.4078 62.8986 28.5586 62.6725 28.5586H61.8433C61.6171 28.5586 61.4663 28.4078 61.4663 28.1817V20.7941C61.4663 20.6057 61.3156 20.4172 61.0894 20.4172H60.2225C60.0341 20.4172 59.8833 20.2288 59.8833 20.0403Z" fill="#BEBEBE"/>
<path d="M72.0949 27.9178C71.3788 28.4455 70.4742 28.747 69.4188 28.747C68.665 28.747 67.9865 28.634 67.4589 28.3701C66.9312 28.1063 66.4412 27.7671 66.0643 27.3525C65.6874 26.9002 65.3858 26.3725 65.1974 25.7694C65.0089 25.1664 64.8958 24.4879 64.8582 23.7718C64.8582 23.0556 64.9712 22.3772 65.1974 21.7741C65.4235 21.1711 65.7251 20.6434 66.1397 20.1911C66.5543 19.7388 67.0066 19.3996 67.5719 19.1734C68.0996 18.9096 68.7027 18.7965 69.3811 18.7965C70.2103 18.7965 70.9265 18.985 71.4918 19.3242C72.0572 19.6634 72.5095 20.1157 72.8487 20.6434C73.188 21.1711 73.4141 21.7741 73.5649 22.4149C73.6779 22.9049 73.7156 23.3949 73.7156 23.8472C73.7156 24.0733 73.5649 24.2241 73.3387 24.2241H66.9689C66.7427 24.2241 66.592 24.4125 66.592 24.6387C66.6297 24.9025 66.6673 25.1664 66.7427 25.4302C66.8558 25.8071 67.0443 26.1463 67.2704 26.4102C67.4966 26.7117 67.8358 26.9379 68.2127 27.0886C68.5896 27.2771 69.0419 27.3525 69.5696 27.3525C70.248 27.3525 70.7757 27.2017 71.1903 26.9002C71.5672 26.6363 71.7934 26.2594 71.9818 25.7694C72.0195 25.6187 72.1703 25.5056 72.3587 25.5056H73.1126C73.3764 25.5056 73.5272 25.7694 73.4895 25.9956C73.1126 26.8248 72.698 27.4655 72.0949 27.9178ZM71.718 21.8118C71.5672 21.4726 71.3788 21.2088 71.1526 20.9449C70.9265 20.7188 70.6249 20.5303 70.3234 20.3795C70.0219 20.2288 69.645 20.1534 69.2304 20.1534C68.8158 20.1534 68.4765 20.2288 68.1373 20.3795C67.7981 20.5303 67.5342 20.7188 67.3081 20.9449C67.0819 21.1711 66.8935 21.4726 66.7427 21.8118C66.6673 22.0003 66.592 22.1887 66.5543 22.4149C66.5166 22.641 66.705 22.8672 66.9312 22.8672H71.5295C71.7557 22.8672 71.9441 22.641 71.9064 22.4149C71.8311 22.2264 71.7934 22.0003 71.718 21.8118Z" fill="#BEBEBE"/>
<path d="M75.4874 26.4102C75.6382 26.6363 75.8266 26.8248 76.0528 26.9755C76.2789 27.1263 76.5805 27.2017 76.8443 27.2771C77.1458 27.3525 77.4474 27.3525 77.7866 27.3525C78.0127 27.3525 78.2766 27.3148 78.5781 27.2771C78.8796 27.2394 79.1058 27.164 79.3319 27.0886C79.5581 26.9755 79.7465 26.8625 79.8973 26.6363C80.0481 26.4479 80.1235 26.184 80.1235 25.9202C80.1235 25.5056 79.9727 25.204 79.6712 25.0156C79.3696 24.8271 78.9927 24.6387 78.5027 24.5256C78.0127 24.4125 77.5227 24.2618 76.9951 24.1864C76.4674 24.111 75.9397 23.9225 75.4874 23.7341C75.0351 23.5456 74.6582 23.2818 74.319 22.9426C74.0174 22.6033 73.8667 22.1134 73.8667 21.5103C73.8667 21.0203 73.9798 20.6057 74.2059 20.2665C74.4321 19.9273 74.6959 19.6257 75.0351 19.4373C75.3743 19.2488 75.7512 19.0603 76.1659 18.9473C76.5805 18.8342 76.9951 18.7965 77.4474 18.7965C77.975 18.7965 78.5027 18.8342 78.955 18.9473C79.4073 19.0227 79.8219 19.2111 80.1611 19.4373C80.5004 19.6634 80.8019 19.9649 80.9904 20.3419C81.1411 20.6434 81.2542 20.9826 81.3296 21.3595C81.3673 21.5857 81.1788 21.8118 80.9527 21.8118H80.1235C79.935 21.8118 79.7842 21.6987 79.7465 21.5103C79.7088 21.3218 79.6335 21.1711 79.5581 21.0203C79.4073 20.8318 79.2566 20.6434 79.0304 20.5303C78.8043 20.4172 78.5781 20.3042 78.352 20.2665C78.0881 20.1911 77.862 20.1911 77.5981 20.1911C77.372 20.1911 77.1458 20.1911 76.882 20.2665C76.6558 20.3042 76.4297 20.3795 76.2412 20.4549C76.0528 20.5303 75.902 20.6811 75.7512 20.8318C75.6382 20.9826 75.5628 21.1711 75.5628 21.4349C75.5628 21.6987 75.6382 21.9249 75.8643 22.1134C76.0528 22.3018 76.2789 22.4526 76.5805 22.5656C76.882 22.6787 77.2212 22.7918 77.5604 22.8672C77.8997 22.9426 78.2766 23.0179 78.6535 23.131C79.0304 23.2064 79.445 23.3195 79.8219 23.4326C80.1988 23.5456 80.5381 23.7341 80.8019 23.9225C81.1034 24.111 81.3296 24.3748 81.518 24.6764C81.7065 24.9779 81.7819 25.3548 81.7819 25.8071C81.7819 26.3725 81.6688 26.8625 81.4427 27.2394C81.2165 27.6163 80.8773 27.9178 80.5004 28.144C80.1235 28.3701 79.6712 28.5586 79.1812 28.634C78.6912 28.7093 78.2012 28.7847 77.7489 28.7847C77.2212 28.7847 76.7312 28.7093 76.2412 28.634C75.7512 28.5209 75.3366 28.3324 74.9597 28.1063C74.5828 27.8424 74.2813 27.5032 74.0928 27.1263C73.9421 26.8248 73.829 26.4479 73.7536 26.071C73.7159 25.8448 73.9044 25.6563 74.1305 25.6563H74.9597C75.1482 25.6563 75.299 25.7694 75.3366 25.9579C75.3366 26.071 75.412 26.2594 75.4874 26.4102Z" fill="#BEBEBE"/>
<path d="M83.7417 26.4102C83.8925 26.6363 84.081 26.8248 84.3071 26.9755C84.5333 27.1263 84.8348 27.2017 85.0986 27.2771C85.4002 27.3525 85.7017 27.3525 86.0409 27.3525C86.2671 27.3525 86.5309 27.3148 86.8324 27.2771C87.134 27.2394 87.3601 27.164 87.5863 27.0886C87.8124 26.9755 88.0009 26.8625 88.1516 26.6363C88.3024 26.4479 88.3778 26.184 88.3778 25.9202C88.3778 25.5056 88.227 25.204 87.9255 25.0156C87.624 24.8271 87.247 24.6387 86.7571 24.5256C86.2671 24.4125 85.7771 24.2618 85.2494 24.1864C84.7217 24.111 84.194 23.9225 83.7417 23.7341C83.2894 23.5456 82.9125 23.2818 82.5733 22.9426C82.2718 22.6033 82.121 22.1134 82.121 21.5103C82.121 21.0203 82.2341 20.6057 82.4602 20.2665C82.6864 19.9273 82.9502 19.6257 83.2894 19.4373C83.6287 19.2488 84.0056 19.0603 84.4202 18.9473C84.8348 18.8342 85.2494 18.7965 85.7017 18.7965C86.2294 18.7965 86.7571 18.8342 87.2094 18.9473C87.6617 19.0227 88.0763 19.2111 88.4155 19.4373C88.7547 19.6634 89.0562 19.9649 89.2447 20.3419C89.3955 20.6434 89.5085 20.9826 89.5839 21.3595C89.6216 21.5857 89.4331 21.8118 89.207 21.8118H88.3778C88.1893 21.8118 88.0386 21.6987 88.0009 21.5103C87.9632 21.3218 87.8878 21.1711 87.8124 21.0203C87.6616 20.8318 87.5109 20.6434 87.2847 20.5303C87.0586 20.4172 86.8324 20.3042 86.6063 20.2665C86.3424 20.1911 86.1163 20.1911 85.8525 20.1911C85.6263 20.1911 85.4002 20.1911 85.1363 20.2665C84.9102 20.3042 84.684 20.3795 84.4956 20.4549C84.3071 20.5303 84.1564 20.6811 84.0056 20.8318C83.8925 20.9826 83.8171 21.1711 83.8171 21.4349C83.8171 21.6987 83.8925 21.9249 84.1187 22.1134C84.3071 22.3018 84.5333 22.4526 84.8348 22.5656C85.1363 22.6787 85.4756 22.7918 85.8148 22.8672C86.154 22.9426 86.5309 23.0179 86.9078 23.131C87.2847 23.2064 87.6993 23.3195 88.0763 23.4326C88.4532 23.5456 88.7924 23.7341 89.0562 23.9225C89.3578 24.111 89.5839 24.3748 89.7724 24.6764C89.9608 24.9779 90.0362 25.3548 90.0362 25.8071C90.0362 26.3725 89.9231 26.8625 89.697 27.2394C89.4708 27.6163 89.1316 27.9178 88.7547 28.144C88.3778 28.3701 87.9255 28.5586 87.4355 28.634C86.9455 28.7093 86.4555 28.7847 86.0032 28.7847C85.4756 28.7847 84.9856 28.7093 84.4956 28.634C84.0056 28.5209 83.591 28.3324 83.2141 28.1063C82.8371 27.8424 82.5356 27.5032 82.3472 27.1263C82.1964 26.8248 82.0833 26.4479 82.0079 26.071C81.9702 25.8448 82.1587 25.6563 82.3849 25.6563H83.2141C83.4025 25.6563 83.5533 25.7694 83.591 25.9579C83.591 26.071 83.6664 26.2594 83.7417 26.4102Z" fill="#BEBEBE"/>
<path d="M90.9033 16.9495V15.7811C90.9033 15.5926 91.054 15.4042 91.2802 15.4042H92.1094C92.3355 15.4042 92.4863 15.5549 92.4863 15.7811V16.9495C92.4863 17.138 92.3355 17.3264 92.1094 17.3264H91.2802C91.0917 17.3264 90.9033 17.138 90.9033 16.9495ZM92.4863 19.3995V28.1816C92.4863 28.4077 92.3355 28.5585 92.1094 28.5585H91.2802C91.054 28.5585 90.9033 28.4077 90.9033 28.1816V19.3995C90.9033 19.211 91.054 19.0226 91.2802 19.0226H92.1094C92.3355 19.0226 92.4863 19.1733 92.4863 19.3995Z" fill="#BEBEBE"/>
<path d="M93.7673 21.8497C93.9557 21.2466 94.2573 20.7189 94.6719 20.2666C95.0488 19.8143 95.5388 19.4751 96.1419 19.2113C96.7449 18.9474 97.3857 18.8344 98.1395 18.8344C98.8933 18.8344 99.5718 18.9474 100.137 19.2113C100.703 19.4751 101.192 19.8143 101.569 20.2666C101.946 20.7189 102.248 21.2466 102.474 21.8497C102.662 22.4527 102.776 23.0935 102.776 23.8096C102.776 24.5258 102.662 25.1665 102.474 25.7696C102.286 26.3726 101.984 26.9003 101.569 27.3526C101.192 27.8049 100.703 28.1441 100.137 28.408C99.5718 28.6718 98.8933 28.7849 98.1395 28.7849C97.3857 28.7849 96.7072 28.6718 96.1419 28.408C95.5765 28.1441 95.0865 27.8049 94.6719 27.3526C94.295 26.9003 93.9934 26.3726 93.7673 25.7696C93.5788 25.1665 93.4658 24.5258 93.4658 23.8096C93.4658 23.0935 93.5411 22.4527 93.7673 21.8497ZM95.3503 25.3173C95.5011 25.7696 95.7272 26.1465 95.9911 26.448C96.2549 26.7495 96.5942 26.9757 96.9334 27.1265C97.2726 27.2772 97.6872 27.3526 98.0641 27.3526C98.441 27.3526 98.8556 27.2772 99.1949 27.1265C99.5718 26.9757 99.8733 26.7495 100.137 26.448C100.401 26.1465 100.627 25.7696 100.778 25.3173C100.929 24.865 101.004 24.375 101.004 23.7719C101.004 23.1689 100.929 22.6789 100.778 22.2266C100.627 21.7743 100.401 21.3974 100.137 21.0958C99.8733 20.7943 99.5341 20.5682 99.1949 20.3797C98.8179 20.2289 98.441 20.1535 98.0641 20.1535C97.6872 20.1535 97.2726 20.2289 96.9334 20.3797C96.5565 20.5305 96.2549 20.7566 95.9911 21.0958C95.7272 21.3974 95.5011 21.7743 95.3503 22.2266C95.1996 22.6789 95.1242 23.1689 95.1242 23.7719C95.1242 24.375 95.1996 24.865 95.3503 25.3173Z" fill="#BEBEBE"/>
<path d="M104.698 19.0227C104.886 19.0227 105.075 19.1734 105.075 19.3996V20.5303H105.113C105.753 19.3619 106.809 18.7965 108.203 18.7965C108.844 18.7965 109.334 18.8719 109.749 19.0603C110.163 19.2488 110.502 19.475 110.766 19.7765C111.03 20.078 111.219 20.4549 111.294 20.8695C111.369 21.2841 111.445 21.7741 111.445 22.2641V28.1817C111.445 28.4078 111.294 28.5586 111.068 28.5586H110.239C110.05 28.5586 109.862 28.4078 109.862 28.1817V22.1134C109.862 21.5103 109.673 21.058 109.334 20.7188C108.995 20.3795 108.505 20.1911 107.902 20.1911C107.412 20.1911 106.997 20.2665 106.658 20.4172C106.319 20.568 106.017 20.7942 105.791 21.058C105.565 21.3218 105.376 21.6611 105.263 22.0003C105.15 22.3772 105.075 22.7541 105.075 23.2064V28.1817C105.075 28.4078 104.924 28.5586 104.698 28.5586H103.869C103.68 28.5586 103.492 28.4078 103.492 28.1817V19.3996C103.492 19.2111 103.643 19.0227 103.869 19.0227H104.698Z" fill="#BEBEBE"/>
<path d="M121.508 28.2571C121.508 28.4078 121.433 28.5586 121.282 28.5963C121.056 28.6717 120.755 28.7093 120.415 28.7093C120.001 28.7093 119.699 28.5963 119.435 28.3701C119.322 28.2571 119.247 28.1063 119.172 27.9178C119.096 27.654 118.795 27.5786 118.568 27.7294C118.267 27.9932 117.928 28.1817 117.551 28.3324C116.985 28.5586 116.382 28.6717 115.704 28.6717C115.289 28.6717 114.875 28.634 114.498 28.5209C114.121 28.4078 113.782 28.2571 113.48 28.0686C113.179 27.8801 112.99 27.5786 112.802 27.2394C112.651 26.9002 112.538 26.4856 112.538 26.0333C112.538 25.5056 112.613 25.0533 112.802 24.7141C112.99 24.3748 113.216 24.0733 113.518 23.8848C113.819 23.6964 114.159 23.5079 114.535 23.3949C114.912 23.2818 115.327 23.2064 115.704 23.131C116.119 23.0556 116.533 22.9803 116.91 22.9426C117.287 22.9049 117.626 22.8295 117.928 22.7541C118.229 22.6787 118.455 22.5656 118.644 22.4149C118.832 22.2641 118.908 22.038 118.908 21.7364C118.908 21.3972 118.832 21.1334 118.719 20.9072C118.606 20.7188 118.418 20.5303 118.229 20.4172C118.041 20.3042 117.815 20.2288 117.551 20.1911C117.287 20.1534 117.061 20.1157 116.797 20.1157C116.119 20.1157 115.591 20.2288 115.139 20.4926C114.762 20.7188 114.535 21.058 114.46 21.6234C114.422 21.8118 114.272 21.9249 114.083 21.9249H113.254C113.028 21.9249 112.839 21.7364 112.877 21.5103C112.915 21.0957 113.028 20.7565 113.216 20.4549C113.442 20.0403 113.744 19.7011 114.121 19.475C114.498 19.2111 114.912 19.0227 115.402 18.9473C115.855 18.8342 116.382 18.7965 116.91 18.7965C117.325 18.7965 117.777 18.8342 118.192 18.8719C118.606 18.9096 118.983 19.0603 119.322 19.2488C119.662 19.4373 119.925 19.7011 120.152 20.0403C120.34 20.3795 120.453 20.8318 120.453 21.3972V26.2971C120.453 26.674 120.491 26.9379 120.528 27.1263C120.566 27.2771 120.717 27.3902 120.943 27.3902C121.32 27.3902 121.433 27.6163 121.433 27.7294C121.508 27.9555 121.508 28.0309 121.508 28.2571ZM118.945 24.2241C118.945 23.9602 118.682 23.8095 118.455 23.8848C118.38 23.9225 118.267 23.9225 118.192 23.9602C117.852 24.0356 117.551 24.0733 117.174 24.111C116.835 24.1487 116.458 24.1864 116.119 24.2618C115.779 24.3371 115.44 24.4125 115.176 24.5256C114.912 24.6387 114.649 24.8271 114.498 25.0533C114.309 25.2794 114.234 25.581 114.234 25.9579C114.234 26.2217 114.272 26.4479 114.385 26.5986C114.498 26.7494 114.611 26.9002 114.799 27.0132C114.988 27.1263 115.176 27.2017 115.365 27.2394C115.553 27.2771 115.817 27.3148 116.081 27.3148C116.609 27.3148 117.023 27.2394 117.4 27.0886C117.777 26.9379 118.078 26.7871 118.305 26.5609C118.531 26.3348 118.719 26.1086 118.832 25.8825C118.945 25.6563 118.983 25.3925 118.983 25.1664L118.945 24.2241Z" fill="#BEBEBE"/>
<path d="M123.506 15.7811V28.1816C123.506 28.4077 123.355 28.5585 123.129 28.5585H122.337C122.149 28.5585 121.961 28.4077 121.961 28.1816V15.7811C121.961 15.5926 122.111 15.4042 122.337 15.4042H123.167C123.355 15.4042 123.506 15.5549 123.506 15.7811Z" fill="#BEBEBE"/>
<path d="M127.275 25.3169C127.426 25.6184 127.652 25.8823 127.916 26.0707C128.18 26.2592 128.481 26.4099 128.858 26.4853C129.198 26.5607 129.574 26.6361 129.951 26.6361C130.215 26.6361 130.479 26.5984 130.781 26.5607C131.082 26.523 131.346 26.4476 131.61 26.2969C131.874 26.1838 132.062 25.9953 132.251 25.8069C132.439 25.6184 132.514 25.3169 132.514 24.9777C132.514 24.6384 132.401 24.3369 132.175 24.1108C131.949 23.8846 131.648 23.6962 131.271 23.5454C130.894 23.3946 130.479 23.2815 130.027 23.1685C129.574 23.0554 129.085 22.9423 128.595 22.7916C128.105 22.6785 127.615 22.5277 127.162 22.3393C126.71 22.1508 126.295 21.9247 125.918 21.6608C125.542 21.397 125.24 21.0201 125.014 20.6055C124.788 20.1909 124.675 19.6632 124.675 19.0601C124.675 18.3817 124.825 17.8163 125.089 17.2886C125.353 16.7609 125.768 16.384 126.22 16.0448C126.672 15.7056 127.2 15.4794 127.803 15.291C128.406 15.1402 128.971 15.0648 129.574 15.0648C130.253 15.0648 130.931 15.1402 131.534 15.291C132.138 15.4417 132.741 15.7056 133.231 16.0448C133.721 16.384 134.097 16.8363 134.399 17.364C134.625 17.7786 134.776 18.2686 134.814 18.7963C134.851 19.0601 134.625 19.2863 134.361 19.2863H132.439C132.213 19.2863 132.024 19.1355 131.987 18.9093C131.949 18.6832 131.874 18.4947 131.798 18.3063C131.648 18.0424 131.459 17.854 131.233 17.7032C131.007 17.5525 130.743 17.4394 130.441 17.4017C130.14 17.3263 129.801 17.3263 129.461 17.3263C129.235 17.3263 129.009 17.364 128.745 17.4017C128.481 17.4394 128.293 17.5525 128.105 17.6655C127.916 17.7786 127.765 17.9294 127.652 18.1178C127.539 18.3063 127.464 18.5324 127.464 18.834C127.464 19.0978 127.501 19.2863 127.615 19.4747C127.728 19.6632 127.916 19.7762 128.18 19.927C128.481 20.0778 128.858 20.1909 129.386 20.3416C129.914 20.4924 130.554 20.6431 131.384 20.8693C131.61 20.907 131.987 21.0201 132.401 21.1331C132.854 21.2462 133.268 21.4724 133.721 21.7362C134.135 22.0377 134.512 22.4146 134.851 22.8669C135.153 23.3192 135.304 23.96 135.304 24.6761C135.304 25.2792 135.191 25.8446 134.964 26.3345C134.738 26.8622 134.399 27.3145 133.909 27.6537C133.419 27.993 132.891 28.3322 132.213 28.5206C131.534 28.7468 130.743 28.8222 129.838 28.8222C129.122 28.8222 128.406 28.7468 127.728 28.5583C127.049 28.3699 126.446 28.106 125.918 27.7291C125.391 27.3522 124.976 26.8622 124.675 26.2592C124.448 25.8069 124.298 25.2415 124.26 24.6384C124.26 24.3746 124.448 24.1484 124.712 24.1484H126.635C126.861 24.1484 127.049 24.3369 127.087 24.5631C127.087 24.8646 127.162 25.0907 127.275 25.3169Z" fill="#BEBEBE"/>
<path d="M138.62 26.2594C138.997 26.6363 139.563 26.8247 140.316 26.8247C140.844 26.8247 141.296 26.7117 141.673 26.4101C141.937 26.2217 142.163 25.9955 142.276 25.8071C142.352 25.6563 142.503 25.5809 142.653 25.5809H144.01C144.349 25.5809 144.538 25.9202 144.425 26.2217C144.048 27.0509 143.596 27.654 142.955 28.0309C142.201 28.5209 141.259 28.747 140.203 28.747C139.45 28.747 138.771 28.6339 138.168 28.4078C137.565 28.1816 137.037 27.8424 136.623 27.3901C136.208 26.9378 135.869 26.4101 135.643 25.8071C135.417 25.204 135.303 24.5256 135.303 23.7717C135.303 23.0179 135.417 22.3772 135.643 21.7741C135.869 21.171 136.208 20.6434 136.623 20.1911C137.037 19.7388 137.565 19.3995 138.168 19.1357C138.771 18.8719 139.412 18.7588 140.128 18.7588C140.919 18.7588 141.636 18.9096 142.239 19.2111C142.842 19.5126 143.332 19.9649 143.709 20.4549C144.086 20.9826 144.387 21.5856 144.538 22.2641C144.689 22.7918 144.726 23.3571 144.726 23.9602C144.726 24.1864 144.538 24.4125 144.274 24.4125H138.319C138.055 24.4125 137.829 24.6386 137.866 24.9402C138.13 25.5056 138.319 25.9578 138.62 26.2594ZM141.56 21.2464C141.259 20.9072 140.769 20.7187 140.128 20.7187C139.713 20.7187 139.374 20.7941 139.073 20.9449C138.809 21.0957 138.583 21.2464 138.394 21.4726C138.206 21.6987 138.093 21.8872 138.055 22.151C138.055 22.1887 138.055 22.1887 138.055 22.2264C137.98 22.5279 138.206 22.7918 138.507 22.7918H141.636C141.937 22.7918 142.163 22.4902 142.05 22.1887C141.937 21.7741 141.786 21.4726 141.56 21.2464Z" fill="#BEBEBE"/>
<path d="M150.041 20.7187C149.627 20.7187 149.287 20.7941 148.986 21.0203C148.684 21.2087 148.458 21.4726 148.307 21.7741C148.119 22.0756 148.006 22.4149 147.93 22.7541C147.855 23.131 147.817 23.4702 147.817 23.8471C147.817 24.224 147.855 24.5256 147.93 24.9025C148.006 25.2417 148.119 25.5809 148.307 25.8825C148.458 26.184 148.684 26.4101 148.986 26.5986C149.287 26.7871 149.627 26.8624 150.003 26.8624C150.644 26.8624 151.096 26.674 151.436 26.3348C151.7 26.0332 151.888 25.694 152.001 25.2417C152.039 25.0533 152.227 24.9025 152.416 24.9025H154.036C154.338 24.9025 154.526 25.1663 154.489 25.4679C154.263 26.4855 153.81 27.2394 153.132 27.8047C152.34 28.4832 151.285 28.7847 150.003 28.7847C149.287 28.7847 148.647 28.6716 148.043 28.4455C147.44 28.2193 146.95 27.8801 146.536 27.4278C146.121 27.0132 145.782 26.4855 145.556 25.8825C145.33 25.2794 145.217 24.6386 145.217 23.9225C145.217 23.2064 145.33 22.4902 145.556 21.8495C145.782 21.2087 146.084 20.6811 146.498 20.2288C146.913 19.7765 147.44 19.3995 148.043 19.1357C148.647 18.8719 149.325 18.7588 150.116 18.7588C150.682 18.7588 151.21 18.8342 151.737 18.9849C152.265 19.1357 152.717 19.3619 153.132 19.6634C153.546 19.9649 153.886 20.3418 154.149 20.7941C154.338 21.0957 154.451 21.4726 154.526 21.8495C154.564 22.1133 154.338 22.3772 154.074 22.3772H152.378C152.19 22.3772 152.001 22.2264 151.963 22.0379C151.662 21.171 151.059 20.7187 150.041 20.7187Z" fill="#BEBEBE"/>
<path d="M161.989 28.5586C161.725 28.5586 161.537 28.3702 161.537 28.1063V27.2394H161.499C161.16 27.8048 160.745 28.1817 160.217 28.4456C159.69 28.7094 159.162 28.8225 158.597 28.8225C157.88 28.8225 157.315 28.7471 156.863 28.5586C156.41 28.3702 156.071 28.1063 155.807 27.7671C155.544 27.4279 155.355 27.0133 155.28 26.5233C155.167 26.0333 155.129 25.5056 155.129 24.9026V19.475C155.129 19.2112 155.317 19.0227 155.581 19.0227H157.277C157.541 19.0227 157.73 19.2112 157.73 19.475V24.4126C157.73 25.2041 157.843 25.7695 158.107 26.1841C158.333 26.561 158.785 26.7494 159.426 26.7494C160.142 26.7494 160.67 26.5233 160.971 26.1087C161.273 25.6941 161.461 24.9779 161.461 24.0357V19.5127C161.461 19.2489 161.65 19.0604 161.913 19.0604H163.61C163.873 19.0604 164.062 19.2489 164.062 19.5127V28.144C164.062 28.4079 163.873 28.5963 163.61 28.5963H161.989V28.5586Z" fill="#BEBEBE"/>
<path d="M167.002 19.0226C167.266 19.0226 167.455 19.2111 167.455 19.4749V20.7941H167.492C167.606 20.4926 167.794 20.2288 167.982 19.9649C168.171 19.7011 168.435 19.5126 168.699 19.3242C168.962 19.1357 169.264 19.0226 169.565 18.9096C169.867 18.7965 170.206 18.7588 170.508 18.7588C170.583 18.7588 170.621 18.7588 170.696 18.7588C170.922 18.7965 171.073 18.9849 171.073 19.2111V21.2841C170.96 21.2464 170.809 21.2464 170.621 21.2087C170.432 21.2087 170.282 21.171 170.131 21.171C169.641 21.171 169.264 21.2464 168.925 21.3972C168.586 21.548 168.322 21.7741 168.133 22.0379C167.945 22.3018 167.794 22.641 167.719 23.0179C167.643 23.3948 167.606 23.7717 167.606 24.224V28.0686C167.606 28.3324 167.417 28.5209 167.153 28.5209H165.457C165.193 28.5209 165.005 28.3324 165.005 28.0686V19.4749C165.005 19.2111 165.193 19.0226 165.457 19.0226H167.002Z" fill="#BEBEBE"/>
<path d="M171.412 17.1003V15.8565C171.412 15.5926 171.6 15.4042 171.864 15.4042H173.56C173.824 15.4042 174.013 15.5926 174.013 15.8565V17.1003C174.013 17.3641 173.824 17.5526 173.56 17.5526H171.864C171.638 17.5526 171.412 17.3641 171.412 17.1003ZM174.05 19.4748V28.1062C174.05 28.37 173.862 28.5585 173.598 28.5585H171.902C171.638 28.5585 171.45 28.37 171.45 28.1062V19.4748C171.45 19.211 171.638 19.0226 171.902 19.0226H173.598C173.824 19.0226 174.05 19.211 174.05 19.4748Z" fill="#BEBEBE"/>
<path d="M180.533 19.4749V20.3418C180.533 20.6056 180.345 20.7941 180.081 20.7941H179.063C178.799 20.7941 178.611 20.9826 178.611 21.2464V25.5055C178.611 25.9578 178.686 26.2217 178.837 26.3724C178.988 26.5232 179.289 26.5986 179.742 26.5986C179.892 26.5986 180.043 26.5986 180.156 26.5609C180.307 26.5609 180.42 26.5232 180.533 26.4855V28.1062C180.533 28.3324 180.345 28.5208 180.119 28.5585C180.006 28.5585 179.892 28.5962 179.779 28.5962C179.516 28.5962 179.252 28.6339 178.988 28.6339C178.573 28.6339 178.196 28.5962 177.857 28.5585C177.518 28.5208 177.179 28.4078 176.915 28.257C176.651 28.1062 176.425 27.8801 176.274 27.5785C176.123 27.277 176.048 26.9001 176.048 26.4101V21.2087C176.048 20.9449 175.859 20.7564 175.596 20.7564H174.917C174.653 20.7564 174.465 20.5679 174.465 20.3041V19.4372C174.465 19.1734 174.653 18.9849 174.917 18.9849H175.596C175.859 18.9849 176.048 18.7965 176.048 18.5326V16.5727C176.048 16.3088 176.236 16.1204 176.5 16.1204H178.196C178.46 16.1204 178.649 16.3088 178.649 16.5727V18.5326C178.649 18.7965 178.837 18.9849 179.101 18.9849H180.119C180.307 19.0226 180.533 19.2111 180.533 19.4749Z" fill="#BEBEBE"/>
<path d="M184.717 31.3855C184.227 31.7247 183.51 31.8754 182.606 31.8754C182.342 31.8754 182.078 31.8754 181.814 31.8378C181.701 31.8378 181.55 31.8001 181.437 31.8001C181.211 31.7624 181.023 31.5739 181.023 31.3478V30.1039C181.023 29.8401 181.249 29.6517 181.513 29.6517C181.588 29.6517 181.701 29.6517 181.777 29.6893C182.04 29.727 182.304 29.727 182.53 29.727C182.87 29.6893 183.133 29.5386 183.284 29.3124C183.435 29.0863 183.548 28.8224 183.548 28.5209C183.548 28.2948 183.51 28.1063 183.435 27.9178L180.344 19.588C180.231 19.2865 180.457 18.985 180.759 18.985H182.568C182.757 18.985 182.945 19.0981 182.983 19.2865L185.056 25.5056H185.093L187.091 19.2865C187.166 19.0981 187.317 18.985 187.506 18.985H189.239C189.541 18.985 189.767 19.2865 189.654 19.588L185.885 29.6893C185.621 30.4809 185.207 31.0462 184.717 31.3855Z" fill="#BEBEBE"/>
</svg>
